<mxfile host="app.diagrams.net" agent="Mozilla/5.0 (Windows NT 10.0; Win64; x64) AppleWebKit/537.36 (KHTML, like Gecko) Chrome/137.0.0.0 Safari/537.36 OPR/121.0.0.0" version="28.2.5">
  <diagram name="Page-1" id="tCtGZ3UlCBNGhQCn4ZBd">
    <mxGraphModel dx="2891" dy="1659" grid="1" gridSize="10" guides="1" tooltips="1" connect="1" arrows="1" fold="1" page="1" pageScale="1" pageWidth="827" pageHeight="1169" math="0" shadow="0">
      <root>
        <mxCell id="0" />
        <mxCell id="1" parent="0" />
        <mxCell id="Y8pbGBjDKDCsPi3sdsjg-3" style="edgeStyle=orthogonalEdgeStyle;rounded=0;orthogonalLoop=1;jettySize=auto;html=1;" edge="1" parent="1" source="Y8pbGBjDKDCsPi3sdsjg-1" target="Y8pbGBjDKDCsPi3sdsjg-4">
          <mxGeometry relative="1" as="geometry">
            <mxPoint x="414" y="250" as="targetPoint" />
          </mxGeometry>
        </mxCell>
        <mxCell id="Y8pbGBjDKDCsPi3sdsjg-1" value="Start" style="strokeWidth=2;html=1;shape=mxgraph.flowchart.start_1;whiteSpace=wrap;" vertex="1" parent="1">
          <mxGeometry x="60" y="110" width="100" height="60" as="geometry" />
        </mxCell>
        <mxCell id="Y8pbGBjDKDCsPi3sdsjg-2" value="&lt;font style=&quot;font-size: 24px;&quot;&gt;Chosen Chart&lt;/font&gt;" style="text;html=1;align=center;verticalAlign=middle;resizable=0;points=[];autosize=1;strokeColor=none;fillColor=none;" vertex="1" parent="1">
          <mxGeometry x="40" y="40" width="170" height="40" as="geometry" />
        </mxCell>
        <mxCell id="Y8pbGBjDKDCsPi3sdsjg-6" style="edgeStyle=orthogonalEdgeStyle;rounded=0;orthogonalLoop=1;jettySize=auto;html=1;" edge="1" parent="1" source="Y8pbGBjDKDCsPi3sdsjg-4" target="Y8pbGBjDKDCsPi3sdsjg-8">
          <mxGeometry relative="1" as="geometry">
            <mxPoint x="420" y="140.0000000000001" as="targetPoint" />
          </mxGeometry>
        </mxCell>
        <mxCell id="Y8pbGBjDKDCsPi3sdsjg-4" value="Generate Chosen Stats" style="rounded=1;whiteSpace=wrap;html=1;absoluteArcSize=1;arcSize=14;strokeWidth=2;" vertex="1" parent="1">
          <mxGeometry x="230" y="90" width="100" height="100" as="geometry" />
        </mxCell>
        <mxCell id="Y8pbGBjDKDCsPi3sdsjg-11" style="edgeStyle=orthogonalEdgeStyle;rounded=0;orthogonalLoop=1;jettySize=auto;html=1;" edge="1" parent="1" source="Y8pbGBjDKDCsPi3sdsjg-8" target="Y8pbGBjDKDCsPi3sdsjg-12">
          <mxGeometry relative="1" as="geometry">
            <mxPoint x="430" y="250" as="targetPoint" />
          </mxGeometry>
        </mxCell>
        <mxCell id="Y8pbGBjDKDCsPi3sdsjg-8" value="Spawn Chosen with their own Respective Spawn Rate" style="rounded=1;whiteSpace=wrap;html=1;absoluteArcSize=1;arcSize=14;strokeWidth=2;" vertex="1" parent="1">
          <mxGeometry x="380" y="95" width="100" height="90" as="geometry" />
        </mxCell>
        <mxCell id="Y8pbGBjDKDCsPi3sdsjg-13" style="edgeStyle=orthogonalEdgeStyle;rounded=0;orthogonalLoop=1;jettySize=auto;html=1;exitX=0;exitY=0.5;exitDx=0;exitDy=0;exitPerimeter=0;" edge="1" parent="1" source="Y8pbGBjDKDCsPi3sdsjg-12" target="Y8pbGBjDKDCsPi3sdsjg-14">
          <mxGeometry relative="1" as="geometry">
            <mxPoint x="160.00000000000023" y="380" as="targetPoint" />
          </mxGeometry>
        </mxCell>
        <mxCell id="Y8pbGBjDKDCsPi3sdsjg-28" style="edgeStyle=orthogonalEdgeStyle;rounded=0;orthogonalLoop=1;jettySize=auto;html=1;entryX=0;entryY=0.25;entryDx=0;entryDy=0;" edge="1" parent="1" source="Y8pbGBjDKDCsPi3sdsjg-12" target="Y8pbGBjDKDCsPi3sdsjg-30">
          <mxGeometry relative="1" as="geometry">
            <mxPoint x="470" y="580.0344827586207" as="targetPoint" />
            <Array as="points">
              <mxPoint x="430" y="580" />
              <mxPoint x="480" y="580" />
            </Array>
          </mxGeometry>
        </mxCell>
        <mxCell id="Y8pbGBjDKDCsPi3sdsjg-12" value="Chosen" style="strokeWidth=2;html=1;shape=mxgraph.flowchart.decision;whiteSpace=wrap;" vertex="1" parent="1">
          <mxGeometry x="380" y="210" width="100" height="100" as="geometry" />
        </mxCell>
        <mxCell id="Y8pbGBjDKDCsPi3sdsjg-14" value="Profile Mechanic" style="swimlane;whiteSpace=wrap;html=1;" vertex="1" parent="1">
          <mxGeometry x="60" y="360" width="310" height="260" as="geometry" />
        </mxCell>
        <mxCell id="Y8pbGBjDKDCsPi3sdsjg-15" value="Read Chosen Lore and Status" style="strokeWidth=2;html=1;shape=mxgraph.flowchart.database;whiteSpace=wrap;" vertex="1" parent="Y8pbGBjDKDCsPi3sdsjg-14">
          <mxGeometry x="220" y="40" width="70" height="80" as="geometry" />
        </mxCell>
        <mxCell id="Y8pbGBjDKDCsPi3sdsjg-18" value="Display Profile UI and Chosen Profile" style="strokeWidth=2;html=1;shape=mxgraph.flowchart.display;whiteSpace=wrap;" vertex="1" parent="Y8pbGBjDKDCsPi3sdsjg-14">
          <mxGeometry x="70" y="50" width="100" height="60" as="geometry" />
        </mxCell>
        <mxCell id="Y8pbGBjDKDCsPi3sdsjg-17" style="edgeStyle=orthogonalEdgeStyle;rounded=0;orthogonalLoop=1;jettySize=auto;html=1;" edge="1" parent="Y8pbGBjDKDCsPi3sdsjg-14" source="Y8pbGBjDKDCsPi3sdsjg-15" target="Y8pbGBjDKDCsPi3sdsjg-18">
          <mxGeometry relative="1" as="geometry">
            <mxPoint x="170" y="80" as="targetPoint" />
          </mxGeometry>
        </mxCell>
        <mxCell id="Y8pbGBjDKDCsPi3sdsjg-20" value="Transfer?" style="strokeWidth=2;html=1;shape=mxgraph.flowchart.decision;whiteSpace=wrap;" vertex="1" parent="Y8pbGBjDKDCsPi3sdsjg-14">
          <mxGeometry x="70" y="140" width="100" height="100" as="geometry" />
        </mxCell>
        <mxCell id="Y8pbGBjDKDCsPi3sdsjg-19" style="edgeStyle=orthogonalEdgeStyle;rounded=0;orthogonalLoop=1;jettySize=auto;html=1;" edge="1" parent="Y8pbGBjDKDCsPi3sdsjg-14" source="Y8pbGBjDKDCsPi3sdsjg-18" target="Y8pbGBjDKDCsPi3sdsjg-20">
          <mxGeometry relative="1" as="geometry">
            <mxPoint x="120" y="170" as="targetPoint" />
          </mxGeometry>
        </mxCell>
        <mxCell id="Y8pbGBjDKDCsPi3sdsjg-16" value="Got Clicked at" style="text;html=1;align=center;verticalAlign=middle;resizable=0;points=[];autosize=1;strokeColor=none;fillColor=none;" vertex="1" parent="1">
          <mxGeometry x="230" y="238" width="100" height="30" as="geometry" />
        </mxCell>
        <mxCell id="Y8pbGBjDKDCsPi3sdsjg-22" value="Transfer Mechanic" style="swimlane;whiteSpace=wrap;html=1;" vertex="1" parent="1">
          <mxGeometry x="490" y="320" width="260" height="180" as="geometry" />
        </mxCell>
        <mxCell id="Y8pbGBjDKDCsPi3sdsjg-25" value="Move Chosen into Selected Marble Database" style="strokeWidth=2;html=1;shape=mxgraph.flowchart.database;whiteSpace=wrap;" vertex="1" parent="Y8pbGBjDKDCsPi3sdsjg-22">
          <mxGeometry x="20" y="40" width="80" height="80" as="geometry" />
        </mxCell>
        <mxCell id="Y8pbGBjDKDCsPi3sdsjg-27" value="Trigger Chosen Spawn Event" style="rounded=1;whiteSpace=wrap;html=1;absoluteArcSize=1;arcSize=14;strokeWidth=2;" vertex="1" parent="Y8pbGBjDKDCsPi3sdsjg-22">
          <mxGeometry x="150" y="40" width="80" height="80" as="geometry" />
        </mxCell>
        <mxCell id="Y8pbGBjDKDCsPi3sdsjg-26" style="edgeStyle=orthogonalEdgeStyle;rounded=0;orthogonalLoop=1;jettySize=auto;html=1;" edge="1" parent="Y8pbGBjDKDCsPi3sdsjg-22" source="Y8pbGBjDKDCsPi3sdsjg-25" target="Y8pbGBjDKDCsPi3sdsjg-27">
          <mxGeometry relative="1" as="geometry">
            <mxPoint x="150" y="80" as="targetPoint" />
          </mxGeometry>
        </mxCell>
        <mxCell id="Y8pbGBjDKDCsPi3sdsjg-21" style="edgeStyle=orthogonalEdgeStyle;rounded=0;orthogonalLoop=1;jettySize=auto;html=1;entryX=0;entryY=0.067;entryDx=0;entryDy=0;entryPerimeter=0;" edge="1" parent="1" source="Y8pbGBjDKDCsPi3sdsjg-20" target="Y8pbGBjDKDCsPi3sdsjg-22">
          <mxGeometry relative="1" as="geometry">
            <mxPoint x="410" y="420" as="targetPoint" />
            <Array as="points">
              <mxPoint x="420" y="550" />
              <mxPoint x="420" y="340" />
            </Array>
          </mxGeometry>
        </mxCell>
        <mxCell id="Y8pbGBjDKDCsPi3sdsjg-23" value="Yes" style="text;html=1;align=center;verticalAlign=middle;resizable=0;points=[];autosize=1;strokeColor=none;fillColor=none;" vertex="1" parent="1">
          <mxGeometry x="310" y="528" width="40" height="30" as="geometry" />
        </mxCell>
        <mxCell id="Y8pbGBjDKDCsPi3sdsjg-30" value="Curse And Blessing Mechanic" style="swimlane;whiteSpace=wrap;html=1;" vertex="1" parent="1">
          <mxGeometry x="480" y="528" width="340" height="262" as="geometry" />
        </mxCell>
        <mxCell id="Y8pbGBjDKDCsPi3sdsjg-32" value="Read Chosen Lore and Status" style="strokeWidth=2;html=1;shape=mxgraph.flowchart.database;whiteSpace=wrap;" vertex="1" parent="Y8pbGBjDKDCsPi3sdsjg-30">
          <mxGeometry x="20" y="40" width="60" height="70" as="geometry" />
        </mxCell>
        <mxCell id="Y8pbGBjDKDCsPi3sdsjg-36" value="" style="edgeStyle=orthogonalEdgeStyle;rounded=0;orthogonalLoop=1;jettySize=auto;html=1;" edge="1" parent="Y8pbGBjDKDCsPi3sdsjg-30" source="Y8pbGBjDKDCsPi3sdsjg-33" target="Y8pbGBjDKDCsPi3sdsjg-35">
          <mxGeometry relative="1" as="geometry" />
        </mxCell>
        <mxCell id="Y8pbGBjDKDCsPi3sdsjg-33" value="Display Profile UI and Chosen Profile" style="strokeWidth=2;html=1;shape=mxgraph.flowchart.display;whiteSpace=wrap;" vertex="1" parent="Y8pbGBjDKDCsPi3sdsjg-30">
          <mxGeometry x="105" y="45" width="100" height="60" as="geometry" />
        </mxCell>
        <mxCell id="Y8pbGBjDKDCsPi3sdsjg-34" style="edgeStyle=orthogonalEdgeStyle;rounded=0;orthogonalLoop=1;jettySize=auto;html=1;entryX=0;entryY=0.5;entryDx=0;entryDy=0;entryPerimeter=0;" edge="1" parent="Y8pbGBjDKDCsPi3sdsjg-30" source="Y8pbGBjDKDCsPi3sdsjg-32" target="Y8pbGBjDKDCsPi3sdsjg-33">
          <mxGeometry relative="1" as="geometry" />
        </mxCell>
        <mxCell id="Y8pbGBjDKDCsPi3sdsjg-35" value="Bless/Curse" style="rhombus;whiteSpace=wrap;html=1;strokeWidth=2;" vertex="1" parent="Y8pbGBjDKDCsPi3sdsjg-30">
          <mxGeometry x="250" y="35" width="80" height="80" as="geometry" />
        </mxCell>
        <mxCell id="Y8pbGBjDKDCsPi3sdsjg-38" value="Display Curse/Blessing List UI" style="rounded=1;whiteSpace=wrap;html=1;absoluteArcSize=1;arcSize=14;strokeWidth=2;" vertex="1" parent="Y8pbGBjDKDCsPi3sdsjg-30">
          <mxGeometry x="250" y="162" width="80" height="78" as="geometry" />
        </mxCell>
        <mxCell id="Y8pbGBjDKDCsPi3sdsjg-37" style="edgeStyle=orthogonalEdgeStyle;rounded=0;orthogonalLoop=1;jettySize=auto;html=1;" edge="1" parent="Y8pbGBjDKDCsPi3sdsjg-30" source="Y8pbGBjDKDCsPi3sdsjg-35" target="Y8pbGBjDKDCsPi3sdsjg-38">
          <mxGeometry relative="1" as="geometry">
            <mxPoint x="290" y="162" as="targetPoint" />
          </mxGeometry>
        </mxCell>
        <mxCell id="Y8pbGBjDKDCsPi3sdsjg-41" style="edgeStyle=orthogonalEdgeStyle;rounded=0;orthogonalLoop=1;jettySize=auto;html=1;" edge="1" parent="Y8pbGBjDKDCsPi3sdsjg-30" source="Y8pbGBjDKDCsPi3sdsjg-40">
          <mxGeometry relative="1" as="geometry">
            <mxPoint x="80" y="200" as="targetPoint" />
          </mxGeometry>
        </mxCell>
        <mxCell id="Y8pbGBjDKDCsPi3sdsjg-40" value="Choose Blessing/Curse" style="rhombus;whiteSpace=wrap;html=1;" vertex="1" parent="Y8pbGBjDKDCsPi3sdsjg-30">
          <mxGeometry x="130" y="160" width="80" height="80" as="geometry" />
        </mxCell>
        <mxCell id="Y8pbGBjDKDCsPi3sdsjg-39" style="edgeStyle=orthogonalEdgeStyle;rounded=0;orthogonalLoop=1;jettySize=auto;html=1;" edge="1" parent="Y8pbGBjDKDCsPi3sdsjg-30" source="Y8pbGBjDKDCsPi3sdsjg-38" target="Y8pbGBjDKDCsPi3sdsjg-40">
          <mxGeometry relative="1" as="geometry">
            <mxPoint x="200" y="201" as="targetPoint" />
          </mxGeometry>
        </mxCell>
        <mxCell id="Y8pbGBjDKDCsPi3sdsjg-42" value="Update Chosen Status" style="strokeWidth=2;html=1;shape=mxgraph.flowchart.database;whiteSpace=wrap;" vertex="1" parent="Y8pbGBjDKDCsPi3sdsjg-30">
          <mxGeometry x="20" y="160" width="60" height="70" as="geometry" />
        </mxCell>
        <mxCell id="Y8pbGBjDKDCsPi3sdsjg-31" value="Got Clicked at after transfer" style="text;html=1;align=center;verticalAlign=middle;resizable=0;points=[];autosize=1;strokeColor=none;fillColor=none;" vertex="1" parent="1">
          <mxGeometry x="295" y="310" width="170" height="30" as="geometry" />
        </mxCell>
      </root>
    </mxGraphModel>
  </diagram>
</mxfile>
